<?xml version="1.0" encoding="utf-8"?>
<!-- Generator: Adobe Illustrator 16.0.0, SVG Export Plug-In . SVG Version: 6.00 Build 0)  -->
<!DOCTYPE svg PUBLIC "-//W3C//DTD SVG 1.1//EN" "http://www.w3.org/Graphics/SVG/1.1/DTD/svg11.dtd">
<svg version="1.1" id="Layer_1" xmlns="http://www.w3.org/2000/svg" xmlns:xlink="http://www.w3.org/1999/xlink" x="0px" y="0px"
	 width="512px" height="512px" viewBox="0 0 512 512" enable-background="new 0 0 512 512" xml:space="preserve">
<title>ionicons-v5-j</title>
<path fill="none" stroke="#00CEE9" stroke-width="32" stroke-linecap="round" stroke-linejoin="round" d="M413.113,181.918
	c-3.142,43.485-35.399,76.979-70.57,76.979s-67.479-33.484-70.57-76.979c-3.212-45.245,28.187-76.98,70.57-76.98
	C384.898,104.938,416.313,137.502,413.113,181.918z"/>
<path fill="none" stroke="#00CEE9" stroke-width="32" stroke-miterlimit="10" d="M342.543,327.331
	c-69.68,0-136.693,34.61-153.469,102.009c-2.23,8.915,3.363,17.74,12.523,17.74h281.886c9.176,0,14.735-8.825,12.537-17.74
	C479.23,360.841,412.232,327.331,342.543,327.331z"/>
<path fill="none" stroke="#00CEE9" stroke-width="32" stroke-linecap="round" stroke-linejoin="round" d="M197.13,181.097
	c-2.506,34.72-28.567,62.07-56.663,62.07c-28.097,0-54.211-27.34-56.667-62.07c-2.554-36.136,22.813-61.951,56.667-61.951
	C174.315,119.146,199.686,145.627,197.13,181.097z"/>
<path fill="none" stroke="#00CEE9" stroke-width="32" stroke-linecap="round" stroke-miterlimit="10" d="M203.544,309.451
	c-19.296-8.845-40.554-12.237-63.077-12.237c-55.602,0-109.167,27.636-122.581,81.467c-1.77,7.12,2.699,14.179,10.017,14.179
	h120.048"/>
</svg>
