<?xml version="1.0" encoding="utf-8"?>
<!-- Generator: Adobe Illustrator 16.0.0, SVG Export Plug-In . SVG Version: 6.00 Build 0)  -->
<!DOCTYPE svg PUBLIC "-//W3C//DTD SVG 1.1//EN" "http://www.w3.org/Graphics/SVG/1.1/DTD/svg11.dtd">
<svg version="1.1" id="Layer_1" xmlns="http://www.w3.org/2000/svg" xmlns:xlink="http://www.w3.org/1999/xlink" x="0px" y="0px"
	 width="300px" height="450px" viewBox="0 0 300 450" enable-background="new 0 0 300 450" xml:space="preserve">
<linearGradient id="SVGID_1_" gradientUnits="userSpaceOnUse" x1="169.0996" y1="450" x2="169.0996" y2="2.0005">
	<stop  offset="0" style="stop-color:#00F0BE"/>
	<stop  offset="1" style="stop-color:#00CEE9"/>
</linearGradient>
<path fill-rule="evenodd" clip-rule="evenodd" fill="url(#SVGID_1_)" d="M97.1,338.05c7.367-6.666,15.4-12.883,24.1-18.649
	c20.1-13.4,42.55-23.634,67.35-30.7l0.05-0.101c24.034-6.833,48.75-10.25,74.15-10.25c5.233,0,10.467,0.15,15.7,0.45
	c7.233,0.4,14.416,1.101,21.55,2.101v34.949c-7.1-1.133-14.283-1.933-21.55-2.399c-5.233-0.367-10.467-0.55-15.7-0.55
	c-22.167,0-43.733,3-64.7,9c-21.267,6.033-40.517,14.783-57.75,26.25l0.05-0.051c-17.533,11.7-31.95,25.617-43.25,41.75
	c-0.133,0.167-0.267,0.367-0.4,0.601C84.667,407.816,76.75,427.1,72.95,448.3v0.05c-0.133,0.567-0.15,1.117-0.05,1.65H38.2
	c0-2.533,0.25-5.15,0.75-7.85c4.733-26.167,14.517-49.95,29.35-71.351C76.5,358.866,86.1,347.95,97.1,338.05z M300,7.9v37.35
	c-1.5-0.733-3.017-1.45-4.55-2.15c-5.467-2.367-11.134-4.083-17-5.15c-5.066-0.934-10.3-1.4-15.7-1.4
	c-11.7-0.066-22.65,2.083-32.85,6.45h0.1c-9.733,4.1-18.1,9.95-25.1,17.55v0.05c-7.101,7.633-12.384,16.517-15.851,26.65v-0.1
	c-3.6,10.8-4.967,22.3-4.1,34.5c0.866,12.033,3.717,23.567,8.55,34.6l0.05,0.05c4.566,10.567,10.634,19.95,18.2,28.15
	c7.267,7.9,15.35,14.033,24.25,18.4c8.767,4.233,17.684,6.367,26.75,6.4c5.267-0.033,10.5-0.767,15.7-2.2
	c3.7-1.033,7.366-2.433,11-4.2h0.05c3.634-1.8,7.134-3.883,10.5-6.25v39.45c-7.1,3.066-14.283,5.217-21.55,6.45
	c-5.2,0.866-10.434,1.3-15.7,1.3c-14.267,0.033-28.217-3.25-41.85-9.85h0.05c-12.767-6.167-24.316-14.867-34.65-26.1
	c-10.133-11-18.283-23.583-24.45-37.75V170c-6.399-14.633-10.166-29.917-11.3-45.85c-1.233-16.967,0.7-32.967,5.8-48V76.1
	c5.034-14.8,12.75-27.8,23.15-39h0.05c10.3-11.167,22.601-19.8,36.9-25.9c14.333-6.1,29.767-9.167,46.3-9.2
	c5.333,0,10.566,0.333,15.7,1C285.85,3.933,293.033,5.567,300,7.9z"/>
</svg>
