<?xml version="1.0" encoding="utf-8"?>
<!-- Generator: Adobe Illustrator 16.0.0, SVG Export Plug-In . SVG Version: 6.00 Build 0)  -->
<!DOCTYPE svg PUBLIC "-//W3C//DTD SVG 1.1//EN" "http://www.w3.org/Graphics/SVG/1.1/DTD/svg11.dtd">
<svg version="1.1" id="Layer_1" xmlns="http://www.w3.org/2000/svg" xmlns:xlink="http://www.w3.org/1999/xlink" x="0px" y="0px"
	 width="512px" height="512px" viewBox="0 0 512 512" enable-background="new 0 0 512 512" xml:space="preserve">
<title>ionicons-v5-e</title>
<path fill="#00F0BE" d="M256,48C141.31,48,48,141.31,48,256c0,114.69,93.31,208,208,208c114.689,0,208-93.31,208-208
	C464,141.31,370.689,48,256,48z M364.25,186.29l-134.4,160c-2.983,3.553-7.361,5.637-12,5.71h-0.27
	c-4.536-0.002-8.857-1.928-11.89-5.3l-57.6-64c-6.062-6.43-5.764-16.556,0.666-22.618c6.43-6.062,16.556-5.764,22.618,0.666
	c0.17,0.18,0.335,0.364,0.497,0.552l45.29,50.32l122.59-145.91c5.781-6.684,15.885-7.415,22.568-1.634
	C368.865,169.739,369.722,179.582,364.25,186.29L364.25,186.29z"/>
</svg>
