<?xml version="1.0" encoding="utf-8"?>
<!-- Generator: Adobe Illustrator 16.0.0, SVG Export Plug-In . SVG Version: 6.00 Build 0)  -->
<!DOCTYPE svg PUBLIC "-//W3C//DTD SVG 1.1//EN" "http://www.w3.org/Graphics/SVG/1.1/DTD/svg11.dtd">
<svg version="1.1" id="Layer_1" xmlns="http://www.w3.org/2000/svg" xmlns:xlink="http://www.w3.org/1999/xlink" x="0px" y="0px"
	 width="600px" height="834px" viewBox="0 0 600 834" enable-background="new 0 0 600 834" xml:space="preserve">
<path fill-rule="evenodd" clip-rule="evenodd" fill="#BBC3C7" d="M425.4,651.05h50.75l-61.9,104.4V819.1H368.7v-63.05l-63.4-105
	h52.351l34,63.5L425.4,651.05z M433.25,526.25h51.55V553H404.15V445.85h29.1V526.25z M472.35,583.2
	c-1.666-1.134-3.816-1.7-6.449-1.7h-13.25v13.7h13.25c2.633,0,4.783-0.55,6.449-1.65c1.634-1.1,2.467-2.816,2.5-5.149
	C474.816,586.066,473.983,584.333,472.35,583.2z M339.75,493.75h18.35c3.7,0,6.684-0.95,8.95-2.85c2.3-1.834,3.483-4.5,3.55-8
	c-0.066-3.534-1.25-6.233-3.55-8.101c-2.267-1.899-5.25-2.85-8.95-2.85h-18.35V493.75z M487.7,562.8h24l15.6,29.101l15.45-29.101
	H566l-28.35,47.851V639.8h-20.9V610.9L487.7,562.8z M492.6,574.85c2.233,3.834,3.351,8.351,3.351,13.551c0,6-1.684,11-5.05,15
	c-3.367,4-8.301,6.699-14.801,8.1l20.9,28.3h-24.6L453.8,612.45h-1.149v27.35H431.8v-77h34.3c6.567,0.033,12.051,1.101,16.45,3.2
	C486.983,568.066,490.333,571.017,492.6,574.85z M572.65,445.85V471.7H518.05v14.2h50.8v25.85h-50.8v15.4h54.601V553h-83.7V445.85
	H572.65z M222.3,651.05h53.8l63.5,168.05h-48.25l-11.25-32h-62.7l-11,32h-47.7L222.3,651.05z M266.05,746.45l-17.25-49.7l-17.2,49.7
	H266.05z M127.85,735.1c0-8.3-1.483-15.616-4.45-21.949c-2.967-6.334-7.5-11.25-13.6-14.75c-6.1-3.601-13.716-5.434-22.85-5.5h-27.4
	v84.35h27.4c9.133-0.066,16.75-1.9,22.85-5.5c6.1-3.667,10.633-8.667,13.6-15C126.367,750.517,127.85,743.3,127.85,735.1z
	 M88.15,651.05c17.567,0.066,32.867,3.584,45.9,10.55c12.967,6.867,23.05,16.601,30.25,29.2c7.2,12.5,10.833,27.267,10.9,44.3
	c-0.067,17-3.7,31.75-10.9,44.25c-7.2,12.601-17.283,22.334-30.25,29.2c-13.033,6.967-28.333,10.483-45.9,10.55h-74.2V651.05H88.15z
	 M101.8,564.55c4.6-2.033,10-3.066,16.2-3.1c3.3-0.033,6.6,0.133,9.9,0.5c3.3,0.399,6.783,1.184,10.45,2.35
	c3.667,1.167,7.7,2.9,12.1,5.2l-8.95,17.15c-2.567-1.567-5.717-3-9.45-4.301c-3.767-1.366-8.033-2.083-12.8-2.149
	c-2.867,0-5.217,0.383-7.05,1.149c-1.833,0.834-2.784,2.117-2.85,3.851c0.033,1.399,0.8,2.467,2.3,3.2
	c1.533,0.767,3.5,1.35,5.9,1.75c2.333,0.399,4.85,0.85,7.55,1.35l2.45,0.5c7.967,1.533,13.95,4.2,17.95,8c4,3.767,6,8.616,6,14.55
	c-0.033,4.834-0.967,8.95-2.8,12.351c-1.833,3.399-4.317,6.166-7.45,8.3c-3.1,2.066-6.6,3.583-10.5,4.55s-7.917,1.45-12.05,1.45
	c-6.934,0-13.417-0.8-19.45-2.4c-6-1.633-11.217-4.017-15.65-7.149L93.8,614.6c2,1.267,4.217,2.483,6.65,3.65
	c2.4,1.233,5.117,2.233,8.15,3c3.033,0.8,6.5,1.217,10.4,1.25c2.833,0,5.15-0.417,6.95-1.25c1.8-0.833,2.716-2.184,2.75-4.05
	c0-1.934-1.2-3.3-3.6-4.101c-2.367-0.8-5.95-1.566-10.75-2.3l-2.9-0.5c-8.8-1.5-15.167-4.217-19.1-8.149
	c-4-3.967-5.867-9.351-5.6-16.15c0.167-4.967,1.567-9.267,4.2-12.9C93.517,569.4,97.133,566.55,101.8,564.55z M14.1,562.8h20.95
	v44.95c0.034,4.434,1.217,7.783,3.55,10.05c2.3,2.233,5.5,3.351,9.6,3.351c4.066,0,7.267-1.117,9.6-3.351
	c2.333-2.267,3.517-5.616,3.55-10.05V562.8H82.3V608.4c-0.033,10.5-2.95,18.583-8.75,24.25c-5.8,5.633-14.25,8.483-25.35,8.55
	c-11.1-0.066-19.55-2.917-25.35-8.55c-5.8-5.667-8.717-13.75-8.75-24.25V562.8z M71.15,474.8c-2.267-1.899-5.25-2.85-8.95-2.85
	H43.85v21.8H62.2c3.7,0,6.683-0.95,8.95-2.85c2.3-1.834,3.483-4.5,3.55-8C74.633,479.366,73.45,476.667,71.15,474.8z M99.35,463.5
	c3.133,5.533,4.7,12,4.7,19.4c0,7.233-1.566,13.566-4.7,19c-3.133,5.433-7.75,9.666-13.85,12.699c-6.1,3.034-13.633,4.584-22.6,4.65
	H43.85V553h-29.1V445.85H62.5c9.133,0.067,16.75,1.65,22.85,4.75C91.55,453.667,96.217,457.967,99.35,463.5z M310.65,553V445.85
	h47.75c9.133,0.067,16.75,1.65,22.85,4.75c6.2,3.067,10.866,7.367,14,12.9s4.7,12,4.7,19.4c0,7.233-1.566,13.566-4.7,19
	c-3.134,5.433-7.75,9.666-13.85,12.699c-6.101,3.034-13.634,4.584-22.601,4.65h-19.05V553H310.65z M252.8,581.35v10.2h36.55v18.601
	H252.8v11.05h39.3v18.6h-60.15v-77h79.45l18.35,55.15l18.4-55.15h80.75v18.55H389.6v10.2h36.551v18.601H389.6v11.05H428.9v18.6
	h-60.15v-73.7l-26.85,73.7h-24.65l-25.15-69.05v10.6H252.8z M174.2,581.35v10.2h36.55v18.601H174.2v11.05h39.3v18.6h-60.15v-77
	h60.15v18.55H174.2z M191.95,445.85V471.7h-54.6v14.2h50.8v25.85h-50.8v15.4h54.6V553h-83.7V445.85H191.95z M279,451.25
	c8.467,4.733,15.083,11.25,19.85,19.55c4.8,8.334,7.25,17.884,7.35,28.65c-0.101,10.733-2.55,20.267-7.35,28.6
	c-4.767,8.3-11.383,14.816-19.85,19.55c-8.467,4.801-18.283,7.25-29.45,7.351c-11.1-0.101-20.883-2.55-29.35-7.351
	c-8.467-4.733-15.083-11.25-19.85-19.55c-4.8-8.333-7.25-17.866-7.35-28.6c0.1-10.767,2.55-20.316,7.35-28.65
	c4.767-8.3,11.383-14.816,19.85-19.55c8.466-4.767,18.25-7.2,29.35-7.3C260.717,444.05,270.533,446.483,279,451.25z M263.4,475.3
	c-3.933-2.3-8.55-3.467-13.85-3.5c-5.233,0.033-9.816,1.2-13.75,3.5c-3.933,2.334-7.017,5.566-9.25,9.7
	c-2.2,4.134-3.316,8.95-3.35,14.45c0.033,5.467,1.15,10.267,3.35,14.399c2.233,4.134,5.317,7.367,9.25,9.7
	c3.934,2.3,8.517,3.483,13.75,3.55c5.3-0.066,9.917-1.25,13.85-3.55c3.934-2.333,7.017-5.566,9.25-9.7
	c2.2-4.133,3.317-8.933,3.35-14.399c-0.033-5.5-1.15-10.316-3.35-14.45C270.417,480.866,267.333,477.634,263.4,475.3z M259.75,357.6
	c8.033,0.033,15.05,1.633,21.05,4.8c5.934,3.167,10.55,7.633,13.85,13.4c3.3,5.733,4.967,12.5,5,20.3c-0.033,7.8-1.7,14.566-5,20.3
	c-3.3,5.767-7.917,10.216-13.85,13.35c-6,3.2-13.017,4.816-21.05,4.85h-34v-77H259.75z M259.2,376.75h-12.6v38.7h12.6
	c4.167-0.067,7.65-0.917,10.45-2.55c2.8-1.667,4.883-3.95,6.25-6.85c1.367-2.867,2.05-6.183,2.05-9.95c0-3.8-0.684-7.15-2.05-10.05
	c-1.367-2.9-3.45-5.15-6.25-6.75C266.85,377.633,263.367,376.783,259.2,376.75z M219.75,347.4H180l53-140.05h44.85l52.9,140.05
	h-40.2l-9.4-26.65H228.9L219.75,347.4z M162.65,361.45c6.067-3.434,13.1-5.184,21.1-5.25c8.033,0.066,15.083,1.816,21.15,5.25
	c6.1,3.4,10.867,8.083,14.3,14.05c3.433,6,5.183,12.867,5.25,20.6c-0.067,7.733-1.817,14.583-5.25,20.55
	c-3.434,6-8.2,10.7-14.3,14.1c-6.066,3.434-13.117,5.184-21.15,5.25c-8-0.066-15.033-1.816-21.1-5.25c-6.1-3.4-10.867-8.1-14.3-14.1
	c-3.434-5.967-5.184-12.816-5.25-20.55c0.066-7.733,1.816-14.6,5.25-20.6C151.783,369.533,156.55,364.85,162.65,361.45z
	 M183.75,376.2c-3.767,0.033-7.067,0.883-9.9,2.55c-2.833,1.667-5.05,3.983-6.65,6.95c-1.567,3-2.367,6.466-2.4,10.4
	c0.034,3.933,0.833,7.383,2.4,10.35c1.6,2.966,3.816,5.3,6.65,7c2.833,1.633,6.133,2.466,9.9,2.5c3.8-0.034,7.117-0.867,9.95-2.5
	c2.833-1.7,5.05-4.034,6.65-7c1.566-2.967,2.367-6.417,2.4-10.35c-0.033-3.934-0.833-7.4-2.4-10.4c-1.6-2.967-3.817-5.284-6.65-6.95
	C190.867,377.083,187.55,376.233,183.75,376.2z M269.45,286.85l-14.35-41.4l-14.35,41.4H269.45z M130.65,360.8
	c4.434,2.067,7.783,5.017,10.05,8.85c2.233,3.833,3.35,8.35,3.35,13.55c0,6-1.683,11-5.05,15s-8.3,6.7-14.8,8.1l20.9,28.3h-24.6
	l-18.6-27.35h-1.15v27.35H79.9v-77h34.3C120.767,357.633,126.25,358.7,130.65,360.8z M114,376.3h-13.25V390H114
	c2.633,0,4.783-0.55,6.45-1.65c1.633-1.1,2.466-2.817,2.5-5.15c-0.034-2.333-0.867-4.067-2.5-5.2
	C118.783,376.867,116.633,376.3,114,376.3z M48.95,357.6c6.566,0.033,12.05,1.15,16.45,3.35c4.434,2.233,7.783,5.333,10.05,9.3
	c2.233,3.967,3.35,8.617,3.35,13.95c0,5.2-1.117,9.75-3.35,13.65c-2.267,3.9-5.583,6.95-9.95,9.15c-4.4,2.167-9.833,3.267-16.3,3.3
	H35.5v24.3H14.65v-77H48.95z M35.5,376.3V392h13.25c2.633,0,4.783-0.683,6.45-2.05c1.633-1.3,2.466-3.217,2.5-5.75
	c-0.034-2.534-0.867-4.483-2.5-5.85c-1.667-1.367-3.817-2.05-6.45-2.05H35.5z M95.8,291.55l27.95-84.2h52.75V347.4h-38v-87.6
	l-22.45,74.6H75.4l-22.45-74.6v87.6h-38V207.35H67.7L95.8,291.55z M246.1,14.5h50.15L244.3,196.55h-58.25L155.6,90.05l-30.35,106.5
	h-58.3L14.9,14.5h50.9l31,122.15L129.55,14.5h52.7L215,136.75L246.1,14.5z M507.25,380.8c0.167-4.966,1.566-9.267,4.2-12.9
	c2.566-3.7,6.184-6.55,10.85-8.55c4.601-2.033,10-3.067,16.2-3.1c3.3-0.033,6.6,0.133,9.9,0.5c3.3,0.4,6.783,1.183,10.449,2.35
	c3.667,1.167,7.7,2.9,12.101,5.2L562,381.45c-2.566-1.567-5.717-3-9.45-4.3c-3.767-1.367-8.033-2.083-12.8-2.15
	c-2.866,0-5.217,0.383-7.05,1.15c-1.834,0.833-2.783,2.117-2.851,3.85c0.034,1.4,0.801,2.467,2.301,3.2
	c1.533,0.767,3.5,1.35,5.899,1.75c2.334,0.4,4.851,0.85,7.55,1.35l2.45,0.5c7.967,1.534,13.95,4.2,17.95,8c4,3.767,6,8.617,6,14.55
	c-0.033,4.833-0.967,8.95-2.8,12.35c-1.834,3.399-4.316,6.166-7.45,8.3c-3.1,2.066-6.6,3.583-10.5,4.55S543.333,436,539.2,436
	c-6.934,0-13.417-0.8-19.45-2.4c-6-1.633-11.217-4.017-15.65-7.149l10.2-17.05c2,1.267,4.217,2.483,6.65,3.65
	c2.399,1.233,5.116,2.233,8.149,3c3.034,0.8,6.5,1.217,10.4,1.25c2.833,0,5.15-0.417,6.95-1.25c1.8-0.833,2.717-2.183,2.75-4.05
	c0-1.933-1.2-3.3-3.601-4.1c-2.366-0.8-5.949-1.566-10.75-2.3l-2.899-0.5c-8.8-1.5-15.167-4.217-19.101-8.15
	C508.85,392.983,506.983,387.6,507.25,380.8z M469.55,347.4V207.35h109.4v33.8h-71.4v18.55h66.4v33.8h-66.4v20.1h71.4v33.8H469.55z
	 M347.6,357.6h20.95v45.6c-0.033,10.5-2.95,18.583-8.75,24.25c-5.8,5.633-14.25,8.483-25.35,8.55
	c-11.101-0.066-19.55-2.917-25.351-8.55c-5.8-5.667-8.716-13.75-8.75-24.25v-45.6h20.95v44.95c0.033,4.434,1.217,7.784,3.55,10.05
	c2.301,2.233,5.5,3.35,9.601,3.35c4.066,0,7.267-1.117,9.6-3.35c2.334-2.267,3.517-5.617,3.55-10.05V357.6z M399.95,378.75
	c-2.8,1.667-4.983,3.983-6.55,6.95c-1.601,3-2.417,6.466-2.45,10.4c0.033,4.367,0.95,8.033,2.75,11c1.733,2.933,4,5.133,6.8,6.6
	c2.833,1.5,5.866,2.25,9.1,2.25c3.634,0,6.917-0.8,9.851-2.4c2.899-1.667,5.416-4.083,7.55-7.25l17.1,11.95
	c-3.633,5.533-8.333,9.85-14.1,12.95c-5.767,3.133-12.483,4.733-20.15,4.8c-8-0.066-15.033-1.783-21.1-5.15
	c-6.1-3.366-10.85-8.05-14.25-14.05c-3.434-5.966-5.184-12.867-5.25-20.7c0.066-7.833,1.816-14.75,5.25-20.75
	c3.4-5.967,8.15-10.633,14.25-14c6.066-3.367,13.1-5.083,21.1-5.15c5.034,0,9.817,0.767,14.351,2.3
	c4.467,1.533,8.483,3.75,12.05,6.65c2.383,1.959,4.482,4.185,6.3,6.675V357.6h64.601v19.2H485.3v57.8H464.4v-57.8h-21.275
	l-16.675,9.15c-1.867-3.2-4.217-5.617-7.05-7.25c-2.834-1.667-6.134-2.5-9.9-2.5C405.934,376.233,402.75,377.083,399.95,378.75z
	 M464.75,207.35l-50.7,68.35l55.15,71.7h-46.65l-39.45-53.6h-10.85v53.6h-38V207.35h38V260h11.05l35.25-52.65H464.75z M445.45,14.5
	v43.95h-92.8v24.1h86.3v43.9h-86.3v26.15h92.8v43.95h-142.2V14.5H445.45z"/>
</svg>
