<?xml version="1.0" encoding="utf-8"?>
<!-- Generator: Adobe Illustrator 16.0.0, SVG Export Plug-In . SVG Version: 6.00 Build 0)  -->
<!DOCTYPE svg PUBLIC "-//W3C//DTD SVG 1.1//EN" "http://www.w3.org/Graphics/SVG/1.1/DTD/svg11.dtd">
<svg version="1.1" id="Layer_1" xmlns="http://www.w3.org/2000/svg" xmlns:xlink="http://www.w3.org/1999/xlink" x="0px" y="0px"
	 width="512px" height="512px" viewBox="0 0 512 512" enable-background="new 0 0 512 512" xml:space="preserve">
<title>ionicons-v5-r</title>
<path fill="#FFC409" d="M449.07,399.08l-170.43-316.5c-12.08-22.44-44.262-22.44-56.352,0L51.87,399.08
	c-8.378,15.561-2.556,34.968,13.005,43.346c4.649,2.503,9.845,3.816,15.125,3.824h340.89c17.675,0.002,32.002-14.322,32.005-31.996
	C452.895,408.958,451.581,403.744,449.07,399.08z M250.47,397.25c-11.046,0-20-8.954-20-20s8.954-20,20-20c11.045,0,20,8.954,20,20
	S261.516,397.25,250.47,397.25z M272.189,196.1l-5.739,122c0,8.838-7.163,16-16,16c-8.837,0-16-7.162-16-16l-5.74-121.95l0,0
	c-0.531-11.989,8.758-22.139,20.748-22.669c0.251-0.011,0.501-0.018,0.752-0.021h0.21c12.007-0.006,21.745,9.722,21.752,21.729
	c0,0.324-0.008,0.647-0.021,0.971L272.189,196.1z"/>
</svg>
