<?xml version="1.0" encoding="utf-8"?>
<!-- Generator: Adobe Illustrator 16.0.0, SVG Export Plug-In . SVG Version: 6.00 Build 0)  -->
<!DOCTYPE svg PUBLIC "-//W3C//DTD SVG 1.1//EN" "http://www.w3.org/Graphics/SVG/1.1/DTD/svg11.dtd">
<svg version="1.1" id="login" xmlns="http://www.w3.org/2000/svg" xmlns:xlink="http://www.w3.org/1999/xlink" x="0px" y="0px"
	 width="25px" height="25px" viewBox="0 0 25 25" enable-background="new 0 0 25 25" xml:space="preserve">
<path fill-rule="evenodd" clip-rule="evenodd" fill="#B9C0C8" d="M12.5,4.4c1.033,0,1.934,0.367,2.7,1.1
	c0.733,0.767,1.1,1.667,1.1,2.7c0,1.066-0.366,1.966-1.1,2.7c-0.767,0.767-1.667,1.15-2.7,1.15c-1.067,0-1.967-0.383-2.7-1.15
	c-0.767-0.733-1.15-1.633-1.15-2.7c0-1.034,0.383-1.934,1.15-2.7C10.533,4.767,11.433,4.4,12.5,4.4z M24.5,12.5
	c0,2.533-0.7,4.8-2.1,6.8c-0.4,0.566-0.884,1.134-1.45,1.7c-0.033,0.033-0.084,0.083-0.15,0.15c-0.1,0.1-0.2,0.183-0.3,0.25h0.05
	c-2.267,2.066-4.95,3.1-8.05,3.1c-3.1,0-5.783-1.033-8.05-3.1H4.5c-0.133-0.067-0.233-0.15-0.3-0.25C4.133,21.083,4.067,21.033,4,21
	v-0.05c-2.333-2.334-3.5-5.15-3.5-8.45S1.667,6.367,4,4c2.367-2.333,5.2-3.5,8.5-3.5s6.116,1.167,8.45,3.5
	C23.316,6.367,24.5,9.2,24.5,12.5z M20.9,18.2c1.166-1.667,1.75-3.566,1.75-5.7c0-2.8-1-5.2-3-7.2C17.684,3.333,15.3,2.35,12.5,2.35
	S7.3,3.333,5.3,5.3c-1.966,2-2.95,4.4-2.95,7.2c0,2.566,0.833,4.783,2.5,6.65V17.4c0-0.567,0.267-1.117,0.8-1.65
	c0.5-0.434,1.184-0.833,2.05-1.2c0.767-0.3,1.6-0.533,2.5-0.7c0.867-0.166,1.633-0.25,2.3-0.25c0.667,0,1.417,0.084,2.25,0.25
	c0.934,0.167,1.767,0.4,2.5,0.7c0.866,0.367,1.55,0.767,2.05,1.2c0.566,0.533,0.851,1.083,0.851,1.65v1.75
	C20.417,18.85,20.667,18.533,20.9,18.2z"/>
</svg>
