<?xml version="1.0" encoding="utf-8"?>
<!-- Generator: Adobe Illustrator 16.0.0, SVG Export Plug-In . SVG Version: 6.00 Build 0)  -->
<!DOCTYPE svg PUBLIC "-//W3C//DTD SVG 1.1//EN" "http://www.w3.org/Graphics/SVG/1.1/DTD/svg11.dtd">
<svg version="1.1" id="Selected_Items" xmlns="http://www.w3.org/2000/svg" xmlns:xlink="http://www.w3.org/1999/xlink" x="0px"
	 y="0px" width="40px" height="40px" viewBox="0 0 40 40" enable-background="new 0 0 40 40" xml:space="preserve">
<path fill="#A8AAAE" d="M28.999,13.334c0,0.666-0.222,1.222-0.666,1.667l-4.998,5l4.997,4.999c0.445,0.447,0.667,1,0.669,1.669
	c0,0.665-0.225,1.222-0.668,1.665c-0.443,0.444-1,0.667-1.665,0.667c-0.668-0.001-1.223-0.223-1.669-0.667L20,23.335l-4.999,4.998
	C14.556,28.777,14,28.999,13.332,29c-0.665,0-1.22-0.223-1.665-0.667c-0.444-0.443-0.667-1-0.668-1.665
	c0.002-0.669,0.223-1.222,0.668-1.669l5-4.999l-5-5C11.222,14.557,11,14,11,13.334c0-0.667,0.222-1.223,0.667-1.667
	c0.443-0.444,1-0.667,1.667-0.667C14,11,14.556,11.222,15,11.667l5,5l4.999-5C25.445,11.223,26,11,26.666,11
	s1.224,0.223,1.667,0.667C28.777,12.111,28.999,12.667,28.999,13.334z"/>
</svg>
