<?xml version="1.0" encoding="utf-8"?>
<!-- Generator: Adobe Illustrator 16.0.0, SVG Export Plug-In . SVG Version: 6.00 Build 0)  -->
<!DOCTYPE svg PUBLIC "-//W3C//DTD SVG 1.1//EN" "http://www.w3.org/Graphics/SVG/1.1/DTD/svg11.dtd">
<svg version="1.1" id="Layer_1" xmlns="http://www.w3.org/2000/svg" xmlns:xlink="http://www.w3.org/1999/xlink" x="0px" y="0px"
	 width="100px" height="100px" viewBox="0 0 100 100" enable-background="new 0 0 100 100" xml:space="preserve">
<title>ionicons-v5_logos</title>
<path fill="#FFFFFF" d="M42.625,26.682c0.058-0.23,0.115-0.42,0.173-0.593c0.115-0.174,0.202-0.349,0.259-0.52
	c0.115-0.23,0.23-0.393,0.346-0.508c0.117-0.23,0.219-0.405,0.334-0.52c0.519-0.679,1.086-1.316,1.72-1.881
	c0.563-0.52,1.257-0.969,2.055-1.372c0.74-0.405,1.604-0.723,2.561-0.942c0.982-0.23,2.08-0.346,3.269-0.346
	c0.519,0,0.979,0,1.361,0c0.462,0,0.925,0.029,1.388,0.087c0.403,0,0.809,0,1.187,0c0.404,0.059,0.792,0.087,1.114,0.087
	c0.346,0,0.692,0.031,1.039,0.088c0.289,0.058,0.578,0.086,0.865,0.086l4.011,0.68l0.099,0.086l-1.462,9.172h-0.097l-3.167-0.594
	l-1.783-0.088c-0.579,0-1.156,0.059-1.734,0.174c-0.494,0.103-0.998,0.277-1.46,0.507c-0.379,0.289-0.709,0.636-0.94,1.025
	c-0.289,0.404-0.421,0.912-0.421,1.549v7.028h9.852L62.524,48.8h-9.183V80H41.77V48.798h-6.175v-8.911h6.175l0.086-9.519
	c0-0.23,0.029-0.432,0.088-0.593c0-0.23,0.027-0.463,0.087-0.694c0-0.173,0.028-0.375,0.086-0.594
	c0.058-0.231,0.116-0.434,0.173-0.607c0.058-0.23,0.115-0.419,0.173-0.594C42.508,27.057,42.566,26.855,42.625,26.682z"/>
</svg>
