<?xml version="1.0" encoding="utf-8"?>
<!-- Generator: Adobe Illustrator 16.0.0, SVG Export Plug-In . SVG Version: 6.00 Build 0)  -->
<!DOCTYPE svg PUBLIC "-//W3C//DTD SVG 1.1//EN" "http://www.w3.org/Graphics/SVG/1.1/DTD/svg11.dtd">
<svg version="1.1" id="Layer_1" xmlns="http://www.w3.org/2000/svg" xmlns:xlink="http://www.w3.org/1999/xlink" x="0px" y="0px"
	 width="100px" height="100px" viewBox="0 0 100 100" enable-background="new 0 0 100 100" xml:space="preserve">
<title>ionicons-v5_logos</title>
<path fill="#FFFFFF" d="M69.438,30.746c-2.086-2.066-4.609-3.09-7.57-3.09H38.133c-2.98,0-5.484,1.023-7.551,3.09
	c-2.067,2.066-3.09,4.59-3.09,7.57v23.715c0,2.852,1.023,5.32,3.09,7.406c2.066,2.047,4.57,3.07,7.551,3.07h23.734
	c2.961,0,5.484-1.023,7.57-3.07c2.047-2.086,3.07-4.555,3.07-7.406V38.316C72.508,35.336,71.484,32.813,69.438,30.746z
	 M56.547,56.711c1.828-1.828,2.744-4.023,2.744-6.549c0-2.521-0.914-4.699-2.744-6.527c-1.828-1.828-4.023-2.742-6.547-2.742
	c-2.524,0-4.699,0.913-6.528,2.742c-1.847,1.83-2.762,4.006-2.762,6.528c0,2.523,0.915,4.719,2.762,6.549
	c1.829,1.827,4.004,2.742,6.528,2.742C52.523,59.453,54.68,58.539,56.547,56.711z M64.281,50.164c0,1.938-0.367,3.805-1.063,5.523
	c-0.805,1.719-1.828,3.18-3.07,4.461c-1.391,1.352-2.945,2.414-4.664,3.07c-1.719,0.805-3.547,1.227-5.484,1.227
	c-1.958,0-3.785-0.422-5.504-1.227c-1.718-0.656-3.254-1.719-4.645-3.07c-1.262-1.281-2.285-2.742-3.09-4.461
	c-0.676-1.719-1.023-3.586-1.023-5.523c0-1.937,0.347-3.84,1.023-5.668c0.805-1.609,1.828-3.09,3.09-4.461
	c1.391-1.262,2.926-2.305,4.645-3.09c1.719-0.695,3.546-1.043,5.504-1.043c1.938,0,3.766,0.348,5.484,1.043
	c1.719,0.785,3.273,1.828,4.664,3.09c1.242,1.371,2.266,2.852,3.07,4.461C63.914,46.324,64.281,48.227,64.281,50.164z
	 M64.773,31.953c0.914,0,1.664,0.348,2.248,1.023c0.697,0.695,1.023,1.5,1.023,2.414s-0.326,1.664-1.023,2.229
	c-0.586,0.696-1.334,1.043-2.248,1.043s-1.719-0.347-2.414-1.043c-0.656-0.566-1.023-1.315-1.023-2.229s0.367-1.719,1.023-2.414
	C63.055,32.301,63.859,31.953,64.773,31.953z M72.875,27.145c1.461,1.48,2.631,3.145,3.438,4.972
	c0.805,2.066,1.188,4.133,1.188,6.199v23.388c0,2.047-0.383,4.092-1.188,6.179c-0.805,1.827-1.977,3.492-3.438,4.992
	c-1.5,1.461-3.166,2.632-4.992,3.438c-2.088,0.805-4.133,1.188-6.18,1.188H38.317c-2.067,0-4.133-0.383-6.199-1.188
	c-1.828-0.805-3.492-1.977-4.973-3.438c-1.5-1.5-2.632-3.165-3.438-4.992c-0.805-2.086-1.207-4.133-1.207-6.18V38.316
	c0-2.066,0.402-4.133,1.207-6.199c0.805-1.827,1.938-3.492,3.438-4.972c1.48-1.5,3.145-2.632,4.973-3.438
	c2.065-0.805,4.132-1.207,6.199-1.207h23.387c2.047,0,4.092,0.402,6.179,1.207C69.711,24.512,71.375,25.645,72.875,27.145z"/>
</svg>
