<?xml version="1.0" encoding="utf-8"?>
<!-- Generator: Adobe Illustrator 16.0.0, SVG Export Plug-In . SVG Version: 6.00 Build 0)  -->
<!DOCTYPE svg PUBLIC "-//W3C//DTD SVG 1.1//EN" "http://www.w3.org/Graphics/SVG/1.1/DTD/svg11.dtd">
<svg version="1.1" id="Layer_1" xmlns="http://www.w3.org/2000/svg" xmlns:xlink="http://www.w3.org/1999/xlink" x="0px" y="0px"
	 width="100px" height="100px" viewBox="0 0 100 100" enable-background="new 0 0 100 100" xml:space="preserve">
<title>ionicons-v5_logos</title>
<path fill-rule="evenodd" clip-rule="evenodd" fill="#FFFFFF" d="M26.072,28.369c0.336-0.479,0.76-0.88,1.288-1.216
	c0.233-0.192,0.497-0.329,0.785-0.425c0.28-0.144,0.568-0.264,0.856-0.36c0.329-0.096,0.665-0.168,1-0.216c0.376,0,0.736,0,1.072,0
	c0.424-0.048,0.856-0.024,1.281,0.072c0.432,0.048,0.816,0.168,1.145,0.36c0.432,0.096,0.784,0.24,1.072,0.425
	c0.288,0.192,0.568,0.432,0.856,0.72c0.24,0.232,0.456,0.521,0.641,0.856c0.192,0.28,0.384,0.592,0.576,0.928
	c0.096,0.329,0.192,0.688,0.288,1.072c0.088,0.329,0.137,0.688,0.137,1.072c0,0.521-0.048,1.024-0.137,1.497
	c-0.144,0.48-0.336,0.928-0.576,1.36c-0.288,0.376-0.593,0.76-0.929,1.137c-0.328,0.336-0.736,0.624-1.216,0.864
	c-0.185,0.089-0.425,0.185-0.712,0.281c-0.24,0.096-0.473,0.192-0.712,0.288c-0.288,0.048-0.576,0.096-0.856,0.144
	c-0.336,0-0.648,0.024-0.928,0.072H30.93c-0.288-0.048-0.576-0.072-0.856-0.072c-0.288-0.048-0.552-0.096-0.784-0.144
	c-0.576-0.144-1.072-0.336-1.504-0.568c-0.425-0.24-0.809-0.528-1.145-0.864c-0.329-0.376-0.64-0.76-0.928-1.137
	c-0.232-0.432-0.4-0.88-0.497-1.36c-0.048-0.192-0.096-0.432-0.144-0.712C25.024,32.202,25,31.938,25,31.658
	c0-0.288,0.024-0.576,0.072-0.864c0.048-0.329,0.12-0.641,0.216-0.928c0.096-0.281,0.208-0.544,0.353-0.785
	C25.784,28.841,25.928,28.609,26.072,28.369z M25.712,41.581h10.644v32.211H25.641V41.653L25.712,41.581z M58.852,41.509
	c0.575-0.185,1.168-0.329,1.792-0.424c0.624-0.096,1.28-0.144,2-0.144c0.624,0,1.186,0.048,1.713,0.144
	c0.576,0.048,1.12,0.144,1.648,0.28c0.513,0.096,1.041,0.24,1.568,0.432c0.48,0.192,0.929,0.432,1.36,0.712
	c0.465,0.24,0.929,0.528,1.346,0.856c0.432,0.336,0.847,0.72,1.216,1.145c0.336,0.336,0.672,0.76,1.008,1.288
	c0.288,0.424,0.576,0.928,0.849,1.497c0.24,0.528,0.48,1.097,0.72,1.72c0.192,0.562,0.353,1.216,0.497,1.921
	c0.144,0.672,0.239,1.392,0.288,2.145c0.048,0.72,0.096,1.505,0.144,2.354v18.438H64.213V56.65c0-0.432,0-0.832,0-1.216
	c-0.048-0.417-0.096-0.801-0.145-1.137c-0.096-0.384-0.191-0.736-0.287-1.072c-0.097-0.336-0.209-0.641-0.353-0.929
	c-0.145-0.336-0.305-0.624-0.497-0.863c-0.144-0.273-0.336-0.514-0.575-0.705c-0.192-0.192-0.401-0.384-0.641-0.577
	c-0.288-0.144-0.576-0.288-0.864-0.432c-0.272-0.096-0.592-0.161-0.928-0.209c-0.369-0.048-0.736-0.07-1.072-0.07
	c-0.369,0-0.705,0.022-0.993,0.07c-0.384,0.048-0.72,0.113-1.008,0.209c-0.561,0.239-1.089,0.56-1.568,0.929
	c-0.432,0.384-0.801,0.784-1.137,1.216c-0.288,0.479-0.528,0.96-0.72,1.439c-0.097,0.226-0.192,0.496-0.288,0.784
	c0,0.273-0.017,0.593-0.064,0.929v18.854H42.286V41.653h10.708l0.08,0.072v4.426c0.336-0.521,0.72-1.041,1.137-1.569
	c0.239-0.336,0.559-0.64,0.928-0.928c0.288-0.288,0.624-0.568,1.008-0.856c0.384-0.288,0.801-0.521,1.281-0.712
	C57.858,41.845,58.338,41.653,58.852,41.509z"/>
</svg>
