<?xml version="1.0" encoding="utf-8"?>
<!-- Generator: Adobe Illustrator 16.0.0, SVG Export Plug-In . SVG Version: 6.00 Build 0)  -->
<!DOCTYPE svg PUBLIC "-//W3C//DTD SVG 1.1//EN" "http://www.w3.org/Graphics/SVG/1.1/DTD/svg11.dtd">
<svg version="1.1" id="login" xmlns="http://www.w3.org/2000/svg" xmlns:xlink="http://www.w3.org/1999/xlink" x="0px" y="0px"
	 width="40px" height="40px" viewBox="0 0 40 40" enable-background="new 0 0 40 40" xml:space="preserve">
<g id="Layer_1_1_">
	<path fill="#A8AAAE" d="M25.287,10.188c1.469,1.461,2.197,3.229,2.197,5.304c0,2.07-0.729,3.835-2.197,5.296
		c-1.458,1.461-3.224,2.19-5.293,2.19c-2.07,0-3.839-0.729-5.3-2.19c-1.457-1.46-2.187-3.225-2.187-5.296
		c0-2.075,0.729-3.843,2.187-5.304C16.155,8.728,17.924,8,19.994,8C22.063,8,23.829,8.728,25.287,10.188z M6.774,35.984
		c0-2.375,0.844-4.397,2.522-6.077c1.676-1.673,3.695-2.517,6.067-2.517h9.275c2.368,0,4.391,0.844,6.069,2.517
		c1.681,1.68,2.517,3.702,2.517,6.077V40H6.774V35.984z"/>
</g>
</svg>
