<?xml version="1.0" encoding="utf-8"?>
<!-- Generator: Adobe Illustrator 16.0.0, SVG Export Plug-In . SVG Version: 6.00 Build 0)  -->
<!DOCTYPE svg PUBLIC "-//W3C//DTD SVG 1.1//EN" "http://www.w3.org/Graphics/SVG/1.1/DTD/svg11.dtd">
<svg version="1.1" id="Selected_Items" xmlns="http://www.w3.org/2000/svg" xmlns:xlink="http://www.w3.org/1999/xlink" x="0px"
	 y="0px" width="40px" height="40px" viewBox="0 0 40 40" enable-background="new 0 0 40 40" xml:space="preserve">
<path fill="#A8AAAE" d="M31.147,29.191l-5.214-5.214c1.256-1.671,1.934-3.706,1.931-5.795c0-5.339-4.343-9.682-9.683-9.682
	c-5.339,0-9.682,4.343-9.682,9.682c0,5.339,4.343,9.682,9.682,9.682c2.09,0.003,4.125-0.675,5.796-1.931l5.214,5.214
	c0.57,0.511,1.446,0.461,1.956-0.109C31.618,30.513,31.618,29.718,31.147,29.191L31.147,29.191z M11.266,18.182
	c0-3.82,3.096-6.916,6.916-6.916c3.82,0,6.917,3.096,6.917,6.916s-3.097,6.917-6.917,6.917C14.364,25.094,11.271,22,11.266,18.182z"
	/>
</svg>
