<?xml version="1.0" encoding="utf-8"?>
<!-- Generator: Adobe Illustrator 16.0.0, SVG Export Plug-In . SVG Version: 6.00 Build 0)  -->
<!DOCTYPE svg PUBLIC "-//W3C//DTD SVG 1.1//EN" "http://www.w3.org/Graphics/SVG/1.1/DTD/svg11.dtd">
<svg version="1.1" id="Layer_1" xmlns="http://www.w3.org/2000/svg" xmlns:xlink="http://www.w3.org/1999/xlink" x="0px" y="0px"
	 width="100px" height="100px" viewBox="0 0 100 100" enable-background="new 0 0 100 100" xml:space="preserve">
<path fill-rule="evenodd" clip-rule="evenodd" fill="#FFFFFF" d="M66.45,25.7c0.366,0.1,0.75,0.216,1.149,0.35
	c0.767,0.267,1.534,0.667,2.301,1.2s1.5,1.2,2.199,2l4.75-1.2c0.233-0.1,0.467-0.183,0.7-0.25c0.2-0.1,0.4-0.2,0.601-0.3
	c0.199-0.1,0.399-0.2,0.6-0.3c0.167-0.1,0.333-0.2,0.5-0.3s0.3-0.217,0.4-0.35c0.133-0.1,0.25-0.216,0.35-0.35v0.2
	c-0.033,0.1-0.066,0.267-0.1,0.5c-0.067,0.2-0.15,0.434-0.25,0.7l-0.4,0.95c-0.066,0.2-0.15,0.383-0.25,0.55
	c-0.134,0.167-0.25,0.35-0.35,0.55c-0.101,0.167-0.233,0.35-0.4,0.55c-0.134,0.2-0.283,0.4-0.45,0.6c-0.166,0.2-0.35,0.4-0.55,0.6
	c-0.2,0.2-0.4,0.383-0.6,0.55c-0.233,0.2-0.467,0.383-0.7,0.55c-0.233,0.2-0.5,0.4-0.8,0.6l4.05-0.55L81,32
	c0.167-0.067,0.35-0.15,0.55-0.25c0.167-0.1,0.351-0.183,0.55-0.25l-4.149,4.65c-0.167,0.133-0.334,0.283-0.5,0.45
	c-0.134,0.1-0.267,0.2-0.4,0.3c-0.133,0.133-0.267,0.233-0.399,0.3c-0.134,0.066-0.267,0.133-0.4,0.2l-0.05,0.05
	c-0.2,0.066-0.334,0.3-0.4,0.7c-0.066,0.2-0.116,0.45-0.149,0.75c0,0.267-0.017,0.567-0.051,0.9l-0.1,2.5
	c-0.066,0.434-0.116,0.934-0.15,1.5c-0.066,0.5-0.133,1.05-0.199,1.65c-0.101,0.566-0.2,1.167-0.301,1.8
	c-0.133,0.633-0.283,1.283-0.449,1.95c-0.167,0.667-0.367,1.367-0.601,2.1c-0.233,0.7-0.5,1.434-0.8,2.2
	c-0.6,1.5-1.35,3.066-2.25,4.7c-0.934,1.6-2.066,3.25-3.4,4.95l-0.399,0.5c-0.101,0.133-0.25,0.3-0.45,0.5l-0.65,0.75
	c-0.233,0.267-0.5,0.55-0.8,0.85c-0.333,0.3-0.684,0.616-1.05,0.95c-0.366,0.366-0.767,0.733-1.2,1.1
	c-0.434,0.334-0.883,0.7-1.35,1.101c-0.5,0.366-1.017,0.733-1.55,1.1c-0.567,0.4-1.15,0.783-1.75,1.15
	c-0.634,0.366-1.267,0.733-1.9,1.1c-0.7,0.333-1.4,0.684-2.1,1.05c-1.434,0.634-2.983,1.217-4.65,1.75
	c-1.667,0.5-3.45,0.884-5.35,1.15l-2.4,0.3c-0.433,0.033-0.883,0.083-1.35,0.15c-0.433,0.033-0.883,0.05-1.35,0.05H36.2
	c-0.5,0-1-0.017-1.5-0.05c-0.534-0.067-1.05-0.134-1.55-0.2c-0.533-0.066-1.066-0.15-1.6-0.25c-0.533-0.101-1.066-0.217-1.6-0.351
	c-0.534-0.166-1.083-0.333-1.65-0.5c-0.533-0.166-1.083-0.366-1.65-0.6c-0.566-0.2-1.117-0.434-1.65-0.7
	c-0.567-0.3-1.133-0.6-1.7-0.899c-1.133-0.634-2.267-1.384-3.4-2.25l0.45,0.05l2.95-0.05c0.333,0,0.7-0.034,1.1-0.101
	c0.4-0.033,0.817-0.083,1.25-0.149c0.434-0.067,0.883-0.15,1.35-0.25c0.467-0.101,0.95-0.217,1.45-0.351
	c0.5-0.133,1.017-0.283,1.55-0.45c0.5-0.199,1.017-0.399,1.55-0.6c0.567-0.2,1.133-0.434,1.7-0.7c0.533-0.267,1.083-0.55,1.65-0.85
	c1.133-0.634,2.267-1.367,3.4-2.2l-1.45-0.2c-0.233-0.066-0.483-0.133-0.75-0.2c-0.267-0.066-0.55-0.149-0.85-0.25
	c-0.3-0.1-0.617-0.216-0.95-0.35c-0.3-0.1-0.617-0.217-0.95-0.35c-0.367-0.167-0.717-0.334-1.05-0.5c-0.333-0.2-0.667-0.4-1-0.601
	c-0.333-0.233-0.65-0.467-0.95-0.7c-0.333-0.267-0.65-0.55-0.95-0.85c-0.6-0.6-1.15-1.283-1.65-2.05
	c-0.467-0.767-0.85-1.65-1.15-2.65l5.25-0.149l-1.55-0.65c-0.233-0.134-0.483-0.267-0.75-0.4c-0.3-0.166-0.583-0.333-0.85-0.5
	c-0.3-0.199-0.617-0.399-0.95-0.6c-0.3-0.233-0.6-0.483-0.9-0.75c-0.333-0.267-0.65-0.55-0.95-0.85
	c-0.333-0.301-0.633-0.617-0.9-0.95c-0.6-0.667-1.15-1.417-1.65-2.25c-0.467-0.867-0.833-1.8-1.1-2.8
	c-0.267-1.033-0.383-2.15-0.35-3.35l3.25,1.1l1.3,0.2c0.133,0.033,0.267,0.05,0.4,0.05l0.35-0.05l-0.35-0.25
	c-0.1-0.1-0.233-0.217-0.4-0.35c-0.167-0.167-0.333-0.35-0.5-0.55c-0.2-0.167-0.4-0.383-0.6-0.65c-0.2-0.233-0.4-0.483-0.6-0.75
	c-0.2-0.3-0.4-0.6-0.6-0.9c-0.2-0.333-0.4-0.683-0.6-1.05c-0.2-0.367-0.367-0.75-0.5-1.15c-0.2-0.4-0.35-0.833-0.45-1.3
	c-0.267-0.867-0.434-1.816-0.5-2.85c-0.033-1.066,0.066-2.183,0.3-3.35c0.233-1.2,0.667-2.467,1.3-3.8h0.05l0.4,0.6
	c0.167,0.167,0.35,0.367,0.55,0.6c0.2,0.233,0.45,0.517,0.75,0.85c0.267,0.3,0.583,0.633,0.95,1c0.333,0.333,0.717,0.683,1.15,1.05
	c0.434,0.4,0.883,0.8,1.35,1.2c0.5,0.4,1.033,0.8,1.6,1.2c0.533,0.434,1.117,0.85,1.75,1.25c0.6,0.4,1.25,0.783,1.95,1.15
	c1.367,0.767,2.867,1.467,4.5,2.1s3.383,1.15,5.25,1.55c1.867,0.4,3.867,0.617,6,0.65l-0.1-1.8c0-0.267,0.017-0.566,0.05-0.9
	c0.033-0.333,0.067-0.667,0.1-1c0.033-0.367,0.084-0.75,0.15-1.15s0.167-0.8,0.3-1.2c0.1-0.4,0.217-0.8,0.35-1.2
	c0.134-0.4,0.3-0.817,0.5-1.25c0.4-0.833,0.917-1.633,1.55-2.4c0.601-0.767,1.351-1.483,2.25-2.15c0.867-0.633,1.917-1.167,3.15-1.6
	l1.4-0.4c0.199-0.066,0.433-0.133,0.699-0.2c0.267-0.033,0.534-0.083,0.801-0.15c0.3-0.034,0.616-0.067,0.949-0.1
	c0.334-0.033,0.667-0.05,1-0.05H63.4c0.3,0,0.6,0.017,0.899,0.05c0.334,0.033,0.667,0.066,1,0.1
	C65.667,25.517,66.05,25.6,66.45,25.7z"/>
</svg>
