<?xml version="1.0" encoding="utf-8"?>
<!-- Generator: Adobe Illustrator 16.0.0, SVG Export Plug-In . SVG Version: 6.00 Build 0)  -->
<!DOCTYPE svg PUBLIC "-//W3C//DTD SVG 1.1//EN" "http://www.w3.org/Graphics/SVG/1.1/DTD/svg11.dtd">
<svg version="1.1" id="Layer_1" xmlns="http://www.w3.org/2000/svg" xmlns:xlink="http://www.w3.org/1999/xlink" x="0px" y="0px"
	 width="100px" height="100px" viewBox="0 0 100 100" enable-background="new 0 0 100 100" xml:space="preserve">
<title>ionicons-v5_logos</title>
<path fill="#FFFFFF" d="M78.132,38.063c0-5.011-3.683-9.041-8.238-9.041c-6.168-0.289-12.46-0.4-18.887-0.4h-2.006
	c-6.414,0-12.716,0.111-18.884,0.401c-4.542,0-8.227,4.052-8.227,9.063c-0.278,3.964-0.398,7.929-0.39,11.889
	c-0.013,3.964,0.115,7.933,0.377,11.905c0,5.01,3.687,9.074,8.228,9.074c6.481,0.299,13.13,0.434,19.887,0.423
	c6.769,0.022,13.399-0.119,19.887-0.423c4.554,0,8.239-4.064,8.239-9.074c0.268-3.976,0.39-7.94,0.379-11.912
	C78.522,46.001,78.401,42.034,78.132,38.063z M44.548,60.897V39.021l16.146,10.934L44.548,60.897z"/>
</svg>
